<svg width="233" height="79" viewBox="0 0 233 79" fill="none" xmlns="http://www.w3.org/2000/svg">
<path d="M13.261 74.224C9.165 74.224 5.997 73.104 3.757 70.864C1.581 68.688 0.493 65.936 0.493 62.608C0.493 59.792 1.197 56.816 2.605 53.68C4.077 50.48 6.029 47.504 8.461 44.752C10.893 41.936 13.581 39.664 16.525 37.936C19.469 36.208 22.413 35.344 25.357 35.344C27.021 35.344 28.589 35.792 30.061 36.688C31.597 37.52 32.365 39.216 32.365 41.776C32.365 44.208 31.661 46.48 30.253 48.592C28.845 50.704 26.957 52.592 24.589 54.256C22.221 55.92 19.597 57.296 16.717 58.384C13.901 59.408 11.053 60.08 8.173 60.4C8.109 60.656 8.045 60.944 7.981 61.264C7.981 61.52 7.981 61.968 7.981 62.608C7.981 62.928 8.013 63.504 8.077 64.336C8.205 65.104 8.493 65.936 8.941 66.832C9.389 67.728 10.125 68.496 11.149 69.136C12.173 69.776 13.581 70.096 15.373 70.096C18.061 70.096 20.749 69.36 23.437 67.888C26.189 66.352 28.749 64.336 31.117 61.84C33.549 59.344 35.565 56.56 37.165 53.488L39.085 55.024C37.357 58.864 35.117 62.224 32.365 65.104C29.677 67.984 26.669 70.224 23.341 71.824C20.077 73.424 16.717 74.224 13.261 74.224ZM9.229 56.848C10.893 56.656 12.749 56.08 14.797 55.12C16.845 54.16 18.797 52.944 20.653 51.472C22.573 50 24.141 48.4 25.357 46.672C26.573 44.88 27.181 43.088 27.181 41.296C27.181 40.592 27.053 40.112 26.797 39.856C26.541 39.6 26.125 39.472 25.549 39.472C24.077 39.472 22.541 40.016 20.941 41.104C19.341 42.128 17.773 43.504 16.237 45.232C14.701 46.896 13.325 48.752 12.109 50.8C10.893 52.848 9.933 54.864 9.229 56.848ZM41.7558 78.352C42.2678 75.28 42.8758 72.112 43.5798 68.848C44.2838 65.584 45.2758 61.712 46.5558 57.232C47.8998 52.752 49.6278 47.216 51.7398 40.624C50.7798 40.688 49.7238 40.784 48.5718 40.912C47.4838 41.04 46.4598 41.136 45.4998 41.2C45.4998 39.152 46.2678 37.584 47.8038 36.496C49.3398 35.408 51.3558 34.608 53.8518 34.096C54.1078 33.2 54.3318 32.496 54.5238 31.984C54.7158 31.472 54.9398 30.832 55.1958 30.064C55.4518 29.296 55.8358 28.24 56.3478 26.896C56.8598 25.488 57.5318 23.504 58.3638 20.944C59.2598 18.384 60.4118 15.024 61.8198 10.864C61.9478 10.544 62.1718 9.904 62.4918 8.944C62.8118 7.984 62.9718 7.088 62.9718 6.256C62.9718 5.36 62.5558 4.912 61.7238 4.912C60.4438 4.912 59.1318 5.488 57.7878 6.64C56.5078 7.792 55.3238 9.264 54.2358 11.056C53.1478 12.784 52.2838 14.608 51.6438 16.528C51.0038 18.384 50.6838 20.048 50.6838 21.52C50.6838 22.032 50.7478 22.608 50.8758 23.248C51.0038 23.888 51.2598 24.752 51.6438 25.84C48.9558 25.84 47.0038 25.264 45.7878 24.112C44.6358 22.896 44.0598 21.36 44.0598 19.504C44.0598 17.328 44.6998 15.152 45.9798 12.976C47.3238 10.8 49.0198 8.816 51.0678 7.024C53.1798 5.168 55.3878 3.696 57.6918 2.608C60.0598 1.456 62.2358 0.879997 64.2198 0.879997C66.2678 0.879997 67.6758 1.424 68.4438 2.512C69.2118 3.6 69.5958 4.816 69.5958 6.16C69.5958 6.864 69.4998 7.568 69.3078 8.272C69.1798 8.976 69.0198 9.648 68.8278 10.288L61.8198 33.328C62.5878 33.264 63.3558 33.232 64.1238 33.232C64.9558 33.232 65.7878 33.232 66.6198 33.232C69.7558 33.232 72.6998 33.296 75.4518 33.424C78.2038 33.552 80.8598 33.744 83.4198 34C85.0198 28.624 86.3638 24.208 87.4518 20.752C88.6038 17.296 89.5958 14.448 90.4278 12.208C91.3238 9.904 92.1238 7.888 92.8278 6.16C93.0838 5.648 93.4358 4.976 93.8838 4.144C94.3958 3.248 95.0998 2.48 95.9958 1.84C96.9558 1.136 98.2038 0.783998 99.7398 0.783998C98.9078 3.024 97.8838 6 96.6678 9.712C95.5158 13.36 94.3318 17.36 93.1158 21.712C91.8998 26 90.7478 30.256 89.6598 34.48C90.5558 34.48 91.8038 34.544 93.4038 34.672C95.0678 34.736 96.6038 34.768 98.0118 34.768C96.0278 36.752 94.2678 38 92.7318 38.512C91.1958 38.96 89.7878 39.184 88.5078 39.184C87.8038 42.128 87.1638 44.944 86.5878 47.632C86.0118 50.32 85.5318 52.816 85.1478 55.12C84.3798 59.216 83.8038 62.8 83.4198 65.872C83.0998 68.88 82.9398 71.344 82.9398 73.264C82.9398 74.288 82.9718 75.184 83.0358 75.952C83.1638 76.784 83.2918 77.584 83.4198 78.352C80.1558 78.032 77.9158 77.232 76.6998 75.952C75.5478 74.736 74.9718 72.56 74.9718 69.424C74.9718 67.952 75.0678 66.32 75.2598 64.528C75.5158 62.736 75.9318 60.624 76.5078 58.192C77.0198 55.824 77.7238 53.104 78.6198 50.032C79.5158 46.96 80.6038 43.376 81.8838 39.28C77.9798 39.28 74.7478 39.312 72.1878 39.376C69.6278 39.44 67.3878 39.504 65.4678 39.568C63.5478 39.632 61.6278 39.76 59.7078 39.952C59.6438 40.208 59.4838 40.752 59.2278 41.584C58.9718 42.416 58.5238 43.888 57.8838 46C57.2438 48.112 56.2838 51.216 55.0038 55.312C53.7238 59.408 51.9958 64.912 49.8198 71.824C49.1158 74.192 47.8998 75.856 46.1718 76.816C44.4438 77.84 42.9718 78.352 41.7558 78.352ZM102.398 73.072C99.5185 73.072 97.5345 72.112 96.4465 70.192C95.4225 68.336 94.9105 66.288 94.9105 64.048C94.9105 62 95.2305 59.92 95.8705 57.808C96.5105 55.632 97.3745 53.616 98.4625 51.76C99.6145 49.904 100.863 48.432 102.207 47.344C103.615 46.192 105.023 45.616 106.431 45.616C106.879 45.616 107.391 45.712 107.967 45.904C108.607 46.032 109.055 46.256 109.311 46.576C108.287 47.856 107.231 49.52 106.143 51.568C105.119 53.552 104.255 55.632 103.551 57.808C102.911 59.984 102.591 61.968 102.591 63.76C102.591 65.04 102.815 66.096 103.263 66.928C103.775 67.76 104.639 68.176 105.855 68.176C107.071 68.176 108.511 67.504 110.174 66.16C111.903 64.752 113.535 63.152 115.071 61.36C113.023 59.504 111.551 57.488 110.655 55.312C109.759 53.072 109.311 50.384 109.311 47.248C109.311 45.904 109.631 44.368 110.271 42.64C110.975 40.912 112.063 39.408 113.535 38.128C115.071 36.848 117.119 36.208 119.679 36.208C122.431 36.208 124.351 36.976 125.439 38.512C126.591 40.048 127.167 41.872 127.167 43.984C127.167 46.352 126.527 49.008 125.247 51.952C124.031 54.896 122.559 57.68 120.831 60.304C121.599 60.688 122.495 60.88 123.519 60.88C124.479 60.88 125.631 60.656 126.975 60.208C128.319 59.76 129.631 59.024 130.911 58C132.191 56.912 133.215 55.472 133.983 53.68L135.711 54.928C134.303 58.192 132.415 60.592 130.047 62.128C127.743 63.6 125.471 64.336 123.231 64.336C122.399 64.336 121.567 64.272 120.734 64.144C119.903 63.952 119.135 63.728 118.431 63.472C116.255 66.032 113.759 68.272 110.943 70.192C108.127 72.112 105.279 73.072 102.398 73.072ZM117.567 58.288C119.103 56.048 120.415 53.648 121.503 51.088C122.591 48.528 123.135 46.16 123.135 43.984C123.135 41.168 122.239 39.76 120.447 39.76C119.231 39.76 117.983 40.624 116.703 42.352C115.423 44.08 114.783 46.256 114.783 48.88C114.783 50.224 115.007 51.856 115.455 53.776C115.967 55.696 116.671 57.2 117.567 58.288ZM181.989 72.976C179.493 72.976 177.637 72.24 176.421 70.768C175.205 69.296 174.597 67.536 174.597 65.488C174.597 64.016 174.821 62.544 175.269 61.072C175.717 59.6 176.165 58.16 176.613 56.752C177.061 55.28 177.285 53.968 177.285 52.816C177.285 51.728 177.061 50.992 176.613 50.608C176.229 50.16 175.717 49.936 175.077 49.936C173.605 49.936 171.877 51.056 169.893 53.296C167.973 55.536 165.573 58.8 162.693 63.088C161.669 64.624 160.709 66.256 159.813 67.984C158.917 69.648 158.117 71.056 157.413 72.208C156.837 72.208 156.069 72.112 155.109 71.92C154.213 71.728 153.413 71.44 152.709 71.056C152.005 70.736 151.653 70.288 151.653 69.712C151.653 69.136 151.973 68.016 152.613 66.352C153.253 64.688 153.989 62.768 154.821 60.592C155.653 58.352 156.389 56.176 157.029 54.064C157.669 51.888 157.989 50.064 157.989 48.592C157.989 46.672 157.317 45.712 155.973 45.712C154.629 45.712 152.997 46.512 151.077 48.112C149.221 49.712 147.237 51.824 145.125 54.448C143.077 57.008 141.125 59.888 139.269 63.088C137.477 66.224 136.005 69.392 134.853 72.592C134.149 72.592 133.285 72.432 132.261 72.112C131.237 71.856 130.341 71.504 129.573 71.056C128.805 70.672 128.421 70.32 128.421 70C128.421 69.936 128.645 69.04 129.093 67.312C129.541 65.52 130.085 63.312 130.725 60.688C131.365 58.064 132.037 55.376 132.741 52.624C133.445 49.872 134.053 47.472 134.565 45.424C134.757 44.72 135.461 44.112 136.677 43.6C137.893 43.024 138.949 42.736 139.845 42.736C140.741 42.736 141.509 43.024 142.149 43.6C142.789 44.176 143.109 44.944 143.109 45.904C143.109 46.544 142.981 47.472 142.725 48.688C142.469 49.904 142.149 51.28 141.765 52.816C143.557 50.384 145.477 48.048 147.525 45.808C149.637 43.568 151.781 41.744 153.957 40.336C156.197 38.864 158.373 38.128 160.485 38.128C162.853 38.128 164.453 38.992 165.285 40.72C166.117 42.384 166.533 44.208 166.533 46.192C166.533 47.472 166.373 48.688 166.053 49.84C165.797 50.928 165.413 52.272 164.901 53.872C166.757 51.184 168.837 48.88 171.141 46.96C173.509 44.976 176.069 43.984 178.821 43.984C181.317 43.984 183.045 44.752 184.005 46.288C184.965 47.76 185.445 49.392 185.445 51.184C185.445 52.848 185.157 54.608 184.581 56.464C184.069 58.256 183.525 59.984 182.949 61.648C182.437 63.248 182.181 64.624 182.181 65.776C182.181 66.416 182.341 67.024 182.661 67.6C182.981 68.112 183.621 68.368 184.581 68.368C186.309 68.368 187.973 67.568 189.573 65.968C191.173 64.368 192.645 62.416 193.989 60.112C195.397 57.744 196.581 55.504 197.541 53.392L199.173 55.408C198.149 58.032 196.805 60.72 195.141 63.472C193.541 66.16 191.653 68.4 189.477 70.192C187.301 72.048 184.805 72.976 181.989 72.976ZM206.292 74.224C202.196 74.224 199.028 73.104 196.788 70.864C194.612 68.688 193.524 65.936 193.524 62.608C193.524 59.792 194.228 56.816 195.636 53.68C197.108 50.48 199.06 47.504 201.492 44.752C203.924 41.936 206.612 39.664 209.556 37.936C212.5 36.208 215.444 35.344 218.388 35.344C220.052 35.344 221.62 35.792 223.092 36.688C224.628 37.52 225.396 39.216 225.396 41.776C225.396 44.208 224.692 46.48 223.284 48.592C221.876 50.704 219.988 52.592 217.62 54.256C215.252 55.92 212.628 57.296 209.748 58.384C206.932 59.408 204.084 60.08 201.204 60.4C201.14 60.656 201.076 60.944 201.012 61.264C201.012 61.52 201.012 61.968 201.012 62.608C201.012 62.928 201.044 63.504 201.108 64.336C201.236 65.104 201.524 65.936 201.972 66.832C202.42 67.728 203.156 68.496 204.18 69.136C205.204 69.776 206.612 70.096 208.404 70.096C211.092 70.096 213.78 69.36 216.468 67.888C219.22 66.352 221.78 64.336 224.148 61.84C226.58 59.344 228.596 56.56 230.196 53.488L232.116 55.024C230.388 58.864 228.148 62.224 225.396 65.104C222.708 67.984 219.7 70.224 216.372 71.824C213.108 73.424 209.748 74.224 206.292 74.224ZM202.26 56.848C203.924 56.656 205.78 56.08 207.828 55.12C209.876 54.16 211.828 52.944 213.684 51.472C215.604 50 217.172 48.4 218.388 46.672C219.604 44.88 220.212 43.088 220.212 41.296C220.212 40.592 220.084 40.112 219.828 39.856C219.572 39.6 219.156 39.472 218.58 39.472C217.108 39.472 215.572 40.016 213.972 41.104C212.372 42.128 210.804 43.504 209.268 45.232C207.732 46.896 206.356 48.752 205.14 50.8C203.924 52.848 202.964 54.864 202.26 56.848Z" fill="url(#paint0_linear)"/>
<path d="M13.261 74.224C9.165 74.224 5.997 73.104 3.757 70.864C1.581 68.688 0.493 65.936 0.493 62.608C0.493 59.792 1.197 56.816 2.605 53.68C4.077 50.48 6.029 47.504 8.461 44.752C10.893 41.936 13.581 39.664 16.525 37.936C19.469 36.208 22.413 35.344 25.357 35.344C27.021 35.344 28.589 35.792 30.061 36.688C31.597 37.52 32.365 39.216 32.365 41.776C32.365 44.208 31.661 46.48 30.253 48.592C28.845 50.704 26.957 52.592 24.589 54.256C22.221 55.92 19.597 57.296 16.717 58.384C13.901 59.408 11.053 60.08 8.173 60.4C8.109 60.656 8.045 60.944 7.981 61.264C7.981 61.52 7.981 61.968 7.981 62.608C7.981 62.928 8.013 63.504 8.077 64.336C8.205 65.104 8.493 65.936 8.941 66.832C9.389 67.728 10.125 68.496 11.149 69.136C12.173 69.776 13.581 70.096 15.373 70.096C18.061 70.096 20.749 69.36 23.437 67.888C26.189 66.352 28.749 64.336 31.117 61.84C33.549 59.344 35.565 56.56 37.165 53.488L39.085 55.024C37.357 58.864 35.117 62.224 32.365 65.104C29.677 67.984 26.669 70.224 23.341 71.824C20.077 73.424 16.717 74.224 13.261 74.224ZM9.229 56.848C10.893 56.656 12.749 56.08 14.797 55.12C16.845 54.16 18.797 52.944 20.653 51.472C22.573 50 24.141 48.4 25.357 46.672C26.573 44.88 27.181 43.088 27.181 41.296C27.181 40.592 27.053 40.112 26.797 39.856C26.541 39.6 26.125 39.472 25.549 39.472C24.077 39.472 22.541 40.016 20.941 41.104C19.341 42.128 17.773 43.504 16.237 45.232C14.701 46.896 13.325 48.752 12.109 50.8C10.893 52.848 9.933 54.864 9.229 56.848ZM41.7558 78.352C42.2678 75.28 42.8758 72.112 43.5798 68.848C44.2838 65.584 45.2758 61.712 46.5558 57.232C47.8998 52.752 49.6278 47.216 51.7398 40.624C50.7798 40.688 49.7238 40.784 48.5718 40.912C47.4838 41.04 46.4598 41.136 45.4998 41.2C45.4998 39.152 46.2678 37.584 47.8038 36.496C49.3398 35.408 51.3558 34.608 53.8518 34.096C54.1078 33.2 54.3318 32.496 54.5238 31.984C54.7158 31.472 54.9398 30.832 55.1958 30.064C55.4518 29.296 55.8358 28.24 56.3478 26.896C56.8598 25.488 57.5318 23.504 58.3638 20.944C59.2598 18.384 60.4118 15.024 61.8198 10.864C61.9478 10.544 62.1718 9.904 62.4918 8.944C62.8118 7.984 62.9718 7.088 62.9718 6.256C62.9718 5.36 62.5558 4.912 61.7238 4.912C60.4438 4.912 59.1318 5.488 57.7878 6.64C56.5078 7.792 55.3238 9.264 54.2358 11.056C53.1478 12.784 52.2838 14.608 51.6438 16.528C51.0038 18.384 50.6838 20.048 50.6838 21.52C50.6838 22.032 50.7478 22.608 50.8758 23.248C51.0038 23.888 51.2598 24.752 51.6438 25.84C48.9558 25.84 47.0038 25.264 45.7878 24.112C44.6358 22.896 44.0598 21.36 44.0598 19.504C44.0598 17.328 44.6998 15.152 45.9798 12.976C47.3238 10.8 49.0198 8.816 51.0678 7.024C53.1798 5.168 55.3878 3.696 57.6918 2.608C60.0598 1.456 62.2358 0.879997 64.2198 0.879997C66.2678 0.879997 67.6758 1.424 68.4438 2.512C69.2118 3.6 69.5958 4.816 69.5958 6.16C69.5958 6.864 69.4998 7.568 69.3078 8.272C69.1798 8.976 69.0198 9.648 68.8278 10.288L61.8198 33.328C62.5878 33.264 63.3558 33.232 64.1238 33.232C64.9558 33.232 65.7878 33.232 66.6198 33.232C69.7558 33.232 72.6998 33.296 75.4518 33.424C78.2038 33.552 80.8598 33.744 83.4198 34C85.0198 28.624 86.3638 24.208 87.4518 20.752C88.6038 17.296 89.5958 14.448 90.4278 12.208C91.3238 9.904 92.1238 7.888 92.8278 6.16C93.0838 5.648 93.4358 4.976 93.8838 4.144C94.3958 3.248 95.0998 2.48 95.9958 1.84C96.9558 1.136 98.2038 0.783998 99.7398 0.783998C98.9078 3.024 97.8838 6 96.6678 9.712C95.5158 13.36 94.3318 17.36 93.1158 21.712C91.8998 26 90.7478 30.256 89.6598 34.48C90.5558 34.48 91.8038 34.544 93.4038 34.672C95.0678 34.736 96.6038 34.768 98.0118 34.768C96.0278 36.752 94.2678 38 92.7318 38.512C91.1958 38.96 89.7878 39.184 88.5078 39.184C87.8038 42.128 87.1638 44.944 86.5878 47.632C86.0118 50.32 85.5318 52.816 85.1478 55.12C84.3798 59.216 83.8038 62.8 83.4198 65.872C83.0998 68.88 82.9398 71.344 82.9398 73.264C82.9398 74.288 82.9718 75.184 83.0358 75.952C83.1638 76.784 83.2918 77.584 83.4198 78.352C80.1558 78.032 77.9158 77.232 76.6998 75.952C75.5478 74.736 74.9718 72.56 74.9718 69.424C74.9718 67.952 75.0678 66.32 75.2598 64.528C75.5158 62.736 75.9318 60.624 76.5078 58.192C77.0198 55.824 77.7238 53.104 78.6198 50.032C79.5158 46.96 80.6038 43.376 81.8838 39.28C77.9798 39.28 74.7478 39.312 72.1878 39.376C69.6278 39.44 67.3878 39.504 65.4678 39.568C63.5478 39.632 61.6278 39.76 59.7078 39.952C59.6438 40.208 59.4838 40.752 59.2278 41.584C58.9718 42.416 58.5238 43.888 57.8838 46C57.2438 48.112 56.2838 51.216 55.0038 55.312C53.7238 59.408 51.9958 64.912 49.8198 71.824C49.1158 74.192 47.8998 75.856 46.1718 76.816C44.4438 77.84 42.9718 78.352 41.7558 78.352ZM102.398 73.072C99.5185 73.072 97.5345 72.112 96.4465 70.192C95.4225 68.336 94.9105 66.288 94.9105 64.048C94.9105 62 95.2305 59.92 95.8705 57.808C96.5105 55.632 97.3745 53.616 98.4625 51.76C99.6145 49.904 100.863 48.432 102.207 47.344C103.615 46.192 105.023 45.616 106.431 45.616C106.879 45.616 107.391 45.712 107.967 45.904C108.607 46.032 109.055 46.256 109.311 46.576C108.287 47.856 107.231 49.52 106.143 51.568C105.119 53.552 104.255 55.632 103.551 57.808C102.911 59.984 102.591 61.968 102.591 63.76C102.591 65.04 102.815 66.096 103.263 66.928C103.775 67.76 104.639 68.176 105.855 68.176C107.071 68.176 108.511 67.504 110.174 66.16C111.903 64.752 113.535 63.152 115.071 61.36C113.023 59.504 111.551 57.488 110.655 55.312C109.759 53.072 109.311 50.384 109.311 47.248C109.311 45.904 109.631 44.368 110.271 42.64C110.975 40.912 112.063 39.408 113.535 38.128C115.071 36.848 117.119 36.208 119.679 36.208C122.431 36.208 124.351 36.976 125.439 38.512C126.591 40.048 127.167 41.872 127.167 43.984C127.167 46.352 126.527 49.008 125.247 51.952C124.031 54.896 122.559 57.68 120.831 60.304C121.599 60.688 122.495 60.88 123.519 60.88C124.479 60.88 125.631 60.656 126.975 60.208C128.319 59.76 129.631 59.024 130.911 58C132.191 56.912 133.215 55.472 133.983 53.68L135.711 54.928C134.303 58.192 132.415 60.592 130.047 62.128C127.743 63.6 125.471 64.336 123.231 64.336C122.399 64.336 121.567 64.272 120.734 64.144C119.903 63.952 119.135 63.728 118.431 63.472C116.255 66.032 113.759 68.272 110.943 70.192C108.127 72.112 105.279 73.072 102.398 73.072ZM117.567 58.288C119.103 56.048 120.415 53.648 121.503 51.088C122.591 48.528 123.135 46.16 123.135 43.984C123.135 41.168 122.239 39.76 120.447 39.76C119.231 39.76 117.983 40.624 116.703 42.352C115.423 44.08 114.783 46.256 114.783 48.88C114.783 50.224 115.007 51.856 115.455 53.776C115.967 55.696 116.671 57.2 117.567 58.288ZM181.989 72.976C179.493 72.976 177.637 72.24 176.421 70.768C175.205 69.296 174.597 67.536 174.597 65.488C174.597 64.016 174.821 62.544 175.269 61.072C175.717 59.6 176.165 58.16 176.613 56.752C177.061 55.28 177.285 53.968 177.285 52.816C177.285 51.728 177.061 50.992 176.613 50.608C176.229 50.16 175.717 49.936 175.077 49.936C173.605 49.936 171.877 51.056 169.893 53.296C167.973 55.536 165.573 58.8 162.693 63.088C161.669 64.624 160.709 66.256 159.813 67.984C158.917 69.648 158.117 71.056 157.413 72.208C156.837 72.208 156.069 72.112 155.109 71.92C154.213 71.728 153.413 71.44 152.709 71.056C152.005 70.736 151.653 70.288 151.653 69.712C151.653 69.136 151.973 68.016 152.613 66.352C153.253 64.688 153.989 62.768 154.821 60.592C155.653 58.352 156.389 56.176 157.029 54.064C157.669 51.888 157.989 50.064 157.989 48.592C157.989 46.672 157.317 45.712 155.973 45.712C154.629 45.712 152.997 46.512 151.077 48.112C149.221 49.712 147.237 51.824 145.125 54.448C143.077 57.008 141.125 59.888 139.269 63.088C137.477 66.224 136.005 69.392 134.853 72.592C134.149 72.592 133.285 72.432 132.261 72.112C131.237 71.856 130.341 71.504 129.573 71.056C128.805 70.672 128.421 70.32 128.421 70C128.421 69.936 128.645 69.04 129.093 67.312C129.541 65.52 130.085 63.312 130.725 60.688C131.365 58.064 132.037 55.376 132.741 52.624C133.445 49.872 134.053 47.472 134.565 45.424C134.757 44.72 135.461 44.112 136.677 43.6C137.893 43.024 138.949 42.736 139.845 42.736C140.741 42.736 141.509 43.024 142.149 43.6C142.789 44.176 143.109 44.944 143.109 45.904C143.109 46.544 142.981 47.472 142.725 48.688C142.469 49.904 142.149 51.28 141.765 52.816C143.557 50.384 145.477 48.048 147.525 45.808C149.637 43.568 151.781 41.744 153.957 40.336C156.197 38.864 158.373 38.128 160.485 38.128C162.853 38.128 164.453 38.992 165.285 40.72C166.117 42.384 166.533 44.208 166.533 46.192C166.533 47.472 166.373 48.688 166.053 49.84C165.797 50.928 165.413 52.272 164.901 53.872C166.757 51.184 168.837 48.88 171.141 46.96C173.509 44.976 176.069 43.984 178.821 43.984C181.317 43.984 183.045 44.752 184.005 46.288C184.965 47.76 185.445 49.392 185.445 51.184C185.445 52.848 185.157 54.608 184.581 56.464C184.069 58.256 183.525 59.984 182.949 61.648C182.437 63.248 182.181 64.624 182.181 65.776C182.181 66.416 182.341 67.024 182.661 67.6C182.981 68.112 183.621 68.368 184.581 68.368C186.309 68.368 187.973 67.568 189.573 65.968C191.173 64.368 192.645 62.416 193.989 60.112C195.397 57.744 196.581 55.504 197.541 53.392L199.173 55.408C198.149 58.032 196.805 60.72 195.141 63.472C193.541 66.16 191.653 68.4 189.477 70.192C187.301 72.048 184.805 72.976 181.989 72.976ZM206.292 74.224C202.196 74.224 199.028 73.104 196.788 70.864C194.612 68.688 193.524 65.936 193.524 62.608C193.524 59.792 194.228 56.816 195.636 53.68C197.108 50.48 199.06 47.504 201.492 44.752C203.924 41.936 206.612 39.664 209.556 37.936C212.5 36.208 215.444 35.344 218.388 35.344C220.052 35.344 221.62 35.792 223.092 36.688C224.628 37.52 225.396 39.216 225.396 41.776C225.396 44.208 224.692 46.48 223.284 48.592C221.876 50.704 219.988 52.592 217.62 54.256C215.252 55.92 212.628 57.296 209.748 58.384C206.932 59.408 204.084 60.08 201.204 60.4C201.14 60.656 201.076 60.944 201.012 61.264C201.012 61.52 201.012 61.968 201.012 62.608C201.012 62.928 201.044 63.504 201.108 64.336C201.236 65.104 201.524 65.936 201.972 66.832C202.42 67.728 203.156 68.496 204.18 69.136C205.204 69.776 206.612 70.096 208.404 70.096C211.092 70.096 213.78 69.36 216.468 67.888C219.22 66.352 221.78 64.336 224.148 61.84C226.58 59.344 228.596 56.56 230.196 53.488L232.116 55.024C230.388 58.864 228.148 62.224 225.396 65.104C222.708 67.984 219.7 70.224 216.372 71.824C213.108 73.424 209.748 74.224 206.292 74.224ZM202.26 56.848C203.924 56.656 205.78 56.08 207.828 55.12C209.876 54.16 211.828 52.944 213.684 51.472C215.604 50 217.172 48.4 218.388 46.672C219.604 44.88 220.212 43.088 220.212 41.296C220.212 40.592 220.084 40.112 219.828 39.856C219.572 39.6 219.156 39.472 218.58 39.472C217.108 39.472 215.572 40.016 213.972 41.104C212.372 42.128 210.804 43.504 209.268 45.232C207.732 46.896 206.356 48.752 205.14 50.8C203.924 52.848 202.964 54.864 202.26 56.848Z" fill="#C644FC" fill-opacity="0.2"/>
<path d="M13.261 74.224C9.165 74.224 5.997 73.104 3.757 70.864C1.581 68.688 0.493 65.936 0.493 62.608C0.493 59.792 1.197 56.816 2.605 53.68C4.077 50.48 6.029 47.504 8.461 44.752C10.893 41.936 13.581 39.664 16.525 37.936C19.469 36.208 22.413 35.344 25.357 35.344C27.021 35.344 28.589 35.792 30.061 36.688C31.597 37.52 32.365 39.216 32.365 41.776C32.365 44.208 31.661 46.48 30.253 48.592C28.845 50.704 26.957 52.592 24.589 54.256C22.221 55.92 19.597 57.296 16.717 58.384C13.901 59.408 11.053 60.08 8.173 60.4C8.109 60.656 8.045 60.944 7.981 61.264C7.981 61.52 7.981 61.968 7.981 62.608C7.981 62.928 8.013 63.504 8.077 64.336C8.205 65.104 8.493 65.936 8.941 66.832C9.389 67.728 10.125 68.496 11.149 69.136C12.173 69.776 13.581 70.096 15.373 70.096C18.061 70.096 20.749 69.36 23.437 67.888C26.189 66.352 28.749 64.336 31.117 61.84C33.549 59.344 35.565 56.56 37.165 53.488L39.085 55.024C37.357 58.864 35.117 62.224 32.365 65.104C29.677 67.984 26.669 70.224 23.341 71.824C20.077 73.424 16.717 74.224 13.261 74.224ZM9.229 56.848C10.893 56.656 12.749 56.08 14.797 55.12C16.845 54.16 18.797 52.944 20.653 51.472C22.573 50 24.141 48.4 25.357 46.672C26.573 44.88 27.181 43.088 27.181 41.296C27.181 40.592 27.053 40.112 26.797 39.856C26.541 39.6 26.125 39.472 25.549 39.472C24.077 39.472 22.541 40.016 20.941 41.104C19.341 42.128 17.773 43.504 16.237 45.232C14.701 46.896 13.325 48.752 12.109 50.8C10.893 52.848 9.933 54.864 9.229 56.848ZM41.7558 78.352C42.2678 75.28 42.8758 72.112 43.5798 68.848C44.2838 65.584 45.2758 61.712 46.5558 57.232C47.8998 52.752 49.6278 47.216 51.7398 40.624C50.7798 40.688 49.7238 40.784 48.5718 40.912C47.4838 41.04 46.4598 41.136 45.4998 41.2C45.4998 39.152 46.2678 37.584 47.8038 36.496C49.3398 35.408 51.3558 34.608 53.8518 34.096C54.1078 33.2 54.3318 32.496 54.5238 31.984C54.7158 31.472 54.9398 30.832 55.1958 30.064C55.4518 29.296 55.8358 28.24 56.3478 26.896C56.8598 25.488 57.5318 23.504 58.3638 20.944C59.2598 18.384 60.4118 15.024 61.8198 10.864C61.9478 10.544 62.1718 9.904 62.4918 8.944C62.8118 7.984 62.9718 7.088 62.9718 6.256C62.9718 5.36 62.5558 4.912 61.7238 4.912C60.4438 4.912 59.1318 5.488 57.7878 6.64C56.5078 7.792 55.3238 9.264 54.2358 11.056C53.1478 12.784 52.2838 14.608 51.6438 16.528C51.0038 18.384 50.6838 20.048 50.6838 21.52C50.6838 22.032 50.7478 22.608 50.8758 23.248C51.0038 23.888 51.2598 24.752 51.6438 25.84C48.9558 25.84 47.0038 25.264 45.7878 24.112C44.6358 22.896 44.0598 21.36 44.0598 19.504C44.0598 17.328 44.6998 15.152 45.9798 12.976C47.3238 10.8 49.0198 8.816 51.0678 7.024C53.1798 5.168 55.3878 3.696 57.6918 2.608C60.0598 1.456 62.2358 0.879997 64.2198 0.879997C66.2678 0.879997 67.6758 1.424 68.4438 2.512C69.2118 3.6 69.5958 4.816 69.5958 6.16C69.5958 6.864 69.4998 7.568 69.3078 8.272C69.1798 8.976 69.0198 9.648 68.8278 10.288L61.8198 33.328C62.5878 33.264 63.3558 33.232 64.1238 33.232C64.9558 33.232 65.7878 33.232 66.6198 33.232C69.7558 33.232 72.6998 33.296 75.4518 33.424C78.2038 33.552 80.8598 33.744 83.4198 34C85.0198 28.624 86.3638 24.208 87.4518 20.752C88.6038 17.296 89.5958 14.448 90.4278 12.208C91.3238 9.904 92.1238 7.888 92.8278 6.16C93.0838 5.648 93.4358 4.976 93.8838 4.144C94.3958 3.248 95.0998 2.48 95.9958 1.84C96.9558 1.136 98.2038 0.783998 99.7398 0.783998C98.9078 3.024 97.8838 6 96.6678 9.712C95.5158 13.36 94.3318 17.36 93.1158 21.712C91.8998 26 90.7478 30.256 89.6598 34.48C90.5558 34.48 91.8038 34.544 93.4038 34.672C95.0678 34.736 96.6038 34.768 98.0118 34.768C96.0278 36.752 94.2678 38 92.7318 38.512C91.1958 38.96 89.7878 39.184 88.5078 39.184C87.8038 42.128 87.1638 44.944 86.5878 47.632C86.0118 50.32 85.5318 52.816 85.1478 55.12C84.3798 59.216 83.8038 62.8 83.4198 65.872C83.0998 68.88 82.9398 71.344 82.9398 73.264C82.9398 74.288 82.9718 75.184 83.0358 75.952C83.1638 76.784 83.2918 77.584 83.4198 78.352C80.1558 78.032 77.9158 77.232 76.6998 75.952C75.5478 74.736 74.9718 72.56 74.9718 69.424C74.9718 67.952 75.0678 66.32 75.2598 64.528C75.5158 62.736 75.9318 60.624 76.5078 58.192C77.0198 55.824 77.7238 53.104 78.6198 50.032C79.5158 46.96 80.6038 43.376 81.8838 39.28C77.9798 39.28 74.7478 39.312 72.1878 39.376C69.6278 39.44 67.3878 39.504 65.4678 39.568C63.5478 39.632 61.6278 39.76 59.7078 39.952C59.6438 40.208 59.4838 40.752 59.2278 41.584C58.9718 42.416 58.5238 43.888 57.8838 46C57.2438 48.112 56.2838 51.216 55.0038 55.312C53.7238 59.408 51.9958 64.912 49.8198 71.824C49.1158 74.192 47.8998 75.856 46.1718 76.816C44.4438 77.84 42.9718 78.352 41.7558 78.352ZM102.398 73.072C99.5185 73.072 97.5345 72.112 96.4465 70.192C95.4225 68.336 94.9105 66.288 94.9105 64.048C94.9105 62 95.2305 59.92 95.8705 57.808C96.5105 55.632 97.3745 53.616 98.4625 51.76C99.6145 49.904 100.863 48.432 102.207 47.344C103.615 46.192 105.023 45.616 106.431 45.616C106.879 45.616 107.391 45.712 107.967 45.904C108.607 46.032 109.055 46.256 109.311 46.576C108.287 47.856 107.231 49.52 106.143 51.568C105.119 53.552 104.255 55.632 103.551 57.808C102.911 59.984 102.591 61.968 102.591 63.76C102.591 65.04 102.815 66.096 103.263 66.928C103.775 67.76 104.639 68.176 105.855 68.176C107.071 68.176 108.511 67.504 110.174 66.16C111.903 64.752 113.535 63.152 115.071 61.36C113.023 59.504 111.551 57.488 110.655 55.312C109.759 53.072 109.311 50.384 109.311 47.248C109.311 45.904 109.631 44.368 110.271 42.64C110.975 40.912 112.063 39.408 113.535 38.128C115.071 36.848 117.119 36.208 119.679 36.208C122.431 36.208 124.351 36.976 125.439 38.512C126.591 40.048 127.167 41.872 127.167 43.984C127.167 46.352 126.527 49.008 125.247 51.952C124.031 54.896 122.559 57.68 120.831 60.304C121.599 60.688 122.495 60.88 123.519 60.88C124.479 60.88 125.631 60.656 126.975 60.208C128.319 59.76 129.631 59.024 130.911 58C132.191 56.912 133.215 55.472 133.983 53.68L135.711 54.928C134.303 58.192 132.415 60.592 130.047 62.128C127.743 63.6 125.471 64.336 123.231 64.336C122.399 64.336 121.567 64.272 120.734 64.144C119.903 63.952 119.135 63.728 118.431 63.472C116.255 66.032 113.759 68.272 110.943 70.192C108.127 72.112 105.279 73.072 102.398 73.072ZM117.567 58.288C119.103 56.048 120.415 53.648 121.503 51.088C122.591 48.528 123.135 46.16 123.135 43.984C123.135 41.168 122.239 39.76 120.447 39.76C119.231 39.76 117.983 40.624 116.703 42.352C115.423 44.08 114.783 46.256 114.783 48.88C114.783 50.224 115.007 51.856 115.455 53.776C115.967 55.696 116.671 57.2 117.567 58.288ZM181.989 72.976C179.493 72.976 177.637 72.24 176.421 70.768C175.205 69.296 174.597 67.536 174.597 65.488C174.597 64.016 174.821 62.544 175.269 61.072C175.717 59.6 176.165 58.16 176.613 56.752C177.061 55.28 177.285 53.968 177.285 52.816C177.285 51.728 177.061 50.992 176.613 50.608C176.229 50.16 175.717 49.936 175.077 49.936C173.605 49.936 171.877 51.056 169.893 53.296C167.973 55.536 165.573 58.8 162.693 63.088C161.669 64.624 160.709 66.256 159.813 67.984C158.917 69.648 158.117 71.056 157.413 72.208C156.837 72.208 156.069 72.112 155.109 71.92C154.213 71.728 153.413 71.44 152.709 71.056C152.005 70.736 151.653 70.288 151.653 69.712C151.653 69.136 151.973 68.016 152.613 66.352C153.253 64.688 153.989 62.768 154.821 60.592C155.653 58.352 156.389 56.176 157.029 54.064C157.669 51.888 157.989 50.064 157.989 48.592C157.989 46.672 157.317 45.712 155.973 45.712C154.629 45.712 152.997 46.512 151.077 48.112C149.221 49.712 147.237 51.824 145.125 54.448C143.077 57.008 141.125 59.888 139.269 63.088C137.477 66.224 136.005 69.392 134.853 72.592C134.149 72.592 133.285 72.432 132.261 72.112C131.237 71.856 130.341 71.504 129.573 71.056C128.805 70.672 128.421 70.32 128.421 70C128.421 69.936 128.645 69.04 129.093 67.312C129.541 65.52 130.085 63.312 130.725 60.688C131.365 58.064 132.037 55.376 132.741 52.624C133.445 49.872 134.053 47.472 134.565 45.424C134.757 44.72 135.461 44.112 136.677 43.6C137.893 43.024 138.949 42.736 139.845 42.736C140.741 42.736 141.509 43.024 142.149 43.6C142.789 44.176 143.109 44.944 143.109 45.904C143.109 46.544 142.981 47.472 142.725 48.688C142.469 49.904 142.149 51.28 141.765 52.816C143.557 50.384 145.477 48.048 147.525 45.808C149.637 43.568 151.781 41.744 153.957 40.336C156.197 38.864 158.373 38.128 160.485 38.128C162.853 38.128 164.453 38.992 165.285 40.72C166.117 42.384 166.533 44.208 166.533 46.192C166.533 47.472 166.373 48.688 166.053 49.84C165.797 50.928 165.413 52.272 164.901 53.872C166.757 51.184 168.837 48.88 171.141 46.96C173.509 44.976 176.069 43.984 178.821 43.984C181.317 43.984 183.045 44.752 184.005 46.288C184.965 47.76 185.445 49.392 185.445 51.184C185.445 52.848 185.157 54.608 184.581 56.464C184.069 58.256 183.525 59.984 182.949 61.648C182.437 63.248 182.181 64.624 182.181 65.776C182.181 66.416 182.341 67.024 182.661 67.6C182.981 68.112 183.621 68.368 184.581 68.368C186.309 68.368 187.973 67.568 189.573 65.968C191.173 64.368 192.645 62.416 193.989 60.112C195.397 57.744 196.581 55.504 197.541 53.392L199.173 55.408C198.149 58.032 196.805 60.72 195.141 63.472C193.541 66.16 191.653 68.4 189.477 70.192C187.301 72.048 184.805 72.976 181.989 72.976ZM206.292 74.224C202.196 74.224 199.028 73.104 196.788 70.864C194.612 68.688 193.524 65.936 193.524 62.608C193.524 59.792 194.228 56.816 195.636 53.68C197.108 50.48 199.06 47.504 201.492 44.752C203.924 41.936 206.612 39.664 209.556 37.936C212.5 36.208 215.444 35.344 218.388 35.344C220.052 35.344 221.62 35.792 223.092 36.688C224.628 37.52 225.396 39.216 225.396 41.776C225.396 44.208 224.692 46.48 223.284 48.592C221.876 50.704 219.988 52.592 217.62 54.256C215.252 55.92 212.628 57.296 209.748 58.384C206.932 59.408 204.084 60.08 201.204 60.4C201.14 60.656 201.076 60.944 201.012 61.264C201.012 61.52 201.012 61.968 201.012 62.608C201.012 62.928 201.044 63.504 201.108 64.336C201.236 65.104 201.524 65.936 201.972 66.832C202.42 67.728 203.156 68.496 204.18 69.136C205.204 69.776 206.612 70.096 208.404 70.096C211.092 70.096 213.78 69.36 216.468 67.888C219.22 66.352 221.78 64.336 224.148 61.84C226.58 59.344 228.596 56.56 230.196 53.488L232.116 55.024C230.388 58.864 228.148 62.224 225.396 65.104C222.708 67.984 219.7 70.224 216.372 71.824C213.108 73.424 209.748 74.224 206.292 74.224ZM202.26 56.848C203.924 56.656 205.78 56.08 207.828 55.12C209.876 54.16 211.828 52.944 213.684 51.472C215.604 50 217.172 48.4 218.388 46.672C219.604 44.88 220.212 43.088 220.212 41.296C220.212 40.592 220.084 40.112 219.828 39.856C219.572 39.6 219.156 39.472 218.58 39.472C217.108 39.472 215.572 40.016 213.972 41.104C212.372 42.128 210.804 43.504 209.268 45.232C207.732 46.896 206.356 48.752 205.14 50.8C203.924 52.848 202.964 54.864 202.26 56.848Z" fill="#0F73EE" fill-opacity="0.2"/>
<defs>
<linearGradient id="paint0_linear" x1="-61" y1="15" x2="228" y2="70" gradientUnits="userSpaceOnUse">
<stop stop-color="#0F73EE"/>
<stop offset="1" stop-color="#C644FC" stop-opacity="0.74"/>
</linearGradient>
</defs>
</svg>
